# Blender v2.93.5 OBJ File: 'alien.blend'
# www.blender.org
mtllib cowboy_obj.mtl
o Cube
v 1.000000 1.000000 1.000000
v 1.000000 -0.423277 1.000000
v -1.000000 1.000000 1.000000
v -1.000000 -0.423277 1.000000
v 0.001163 -0.000231 6.042233
v -0.648470 -6.380710 0.260209
v -0.648470 -6.380710 0.968443
v 0.610259 -6.380710 0.968443
v 0.610259 -6.380710 0.260209
v 1.747472 2.347242 1.373736
v -1.747472 2.347242 1.373736
v 1.747472 2.347242 -0.006764
v -1.747472 2.347242 -0.002438
v 1.000000 3.767432 1.000000
v -1.000000 3.767432 1.000000
v -1.000000 -2.725669 1.000000
v 1.000000 -2.725669 1.000000
v 1.000000 1.000000 -1.000000
v 1.000000 -0.423277 -1.000000
v -1.000000 1.000000 -1.000000
v -1.000000 -0.423277 -1.000000
v -1.000000 -0.423277 0.000000
v 1.000000 1.000000 0.000000
v -1.000000 1.000000 0.000000
v 1.000000 -0.423277 0.000000
v 0.001163 -0.000231 -6.042233
v -0.648470 -6.380710 -0.260209
v -0.648470 -6.380710 -0.968443
v 0.610259 -6.380710 -0.968443
v 0.610259 -6.380710 -0.260209
v 1.747472 2.347242 -1.373736
v -1.747472 2.347242 -1.373736
v 1.747472 2.347242 0.006764
v -1.747472 2.347242 0.002438
v 1.000000 3.767432 -1.000000
v -1.000000 3.767432 -1.000000
v 1.000000 3.767432 0.000000
v -1.000000 3.767432 0.000000
v -1.000000 -2.725669 0.000000
v -1.000000 -2.725669 -1.000000
v 1.000000 -2.725669 0.000000
v 1.000000 -2.725669 -1.000000
vt 0.738685 0.544204
vt 0.725476 0.447275
vt 0.848541 0.442381
vt 0.889821 0.544961
vt 0.269825 0.346035
vt 0.279322 0.414468
vt 0.030941 0.441108
vt 0.022827 0.392314
vt 0.446466 0.547180
vt 0.551408 0.547987
vt 0.550841 0.621719
vt 0.445900 0.620913
vt 0.450705 0.322822
vt 0.559375 0.359985
vt 0.539803 0.429691
vt 0.440592 0.401834
vt 0.051146 0.621946
vt 0.051146 0.712646
vt 0.000113 0.712646
vt 0.000113 0.621946
vt 0.283805 0.548443
vt 0.031994 0.530402
vt 0.278644 0.617868
vt 0.024989 0.579336
vt 0.236135 0.219228
vt 0.000113 0.308457
vt 0.790579 0.274327
vt 0.797907 0.238226
vt 0.830718 0.251502
vt 0.829712 0.273166
vt 0.707620 0.291668
vt 0.705123 0.197235
vt 0.791681 0.000113
vt 0.999887 0.038578
vt 0.942297 0.359386
vt 0.984968 0.245116
vt 0.999887 0.436462
vt 0.378132 0.175824
vt 0.337203 0.081977
vt 0.704897 0.000113
vt 0.704897 0.388261
vt 0.738685 0.544204
vt 0.889821 0.544961
vt 0.848541 0.442381
vt 0.269825 0.346035
vt 0.022827 0.392314
vt 0.030941 0.441108
vt 0.445900 0.620913
vt 0.550841 0.621719
vt 0.450705 0.322822
vt 0.559375 0.359985
vt 0.051146 0.621946
vt 0.000113 0.621946
vt 0.000113 0.712646
vt 0.051146 0.712646
vt 0.031994 0.530402
vt 0.024989 0.579336
vt 0.278644 0.617868
vt 0.236135 0.219228
vt 0.000113 0.308457
vt 0.790579 0.274327
vt 0.830718 0.251502
vt 0.797907 0.238226
vt 0.705123 0.197235
vt 0.999887 0.038578
vt 0.791681 0.000113
vt 0.984968 0.245116
vt 0.999887 0.436462
vt 0.378132 0.175824
vt 0.704897 0.000113
vt 0.337203 0.081977
vt 0.704897 0.388261
vn 0.8744 -0.4851 0.0000
vn -0.9954 -0.0957 0.0000
vn 1.0000 0.0000 0.0000
vn -1.0000 0.0000 0.0000
vn 0.0000 -1.0000 0.0000
vn 0.0000 -0.0710 -0.9975
vn 0.9944 -0.1060 0.0000
vn 0.0000 -0.0086 1.0000
vn -0.8849 0.4657 0.0000
vn -0.0008 -0.0034 -1.0000
vn 0.0000 -0.2673 0.9636
vn -0.8744 -0.4851 0.0000
vn 0.0000 1.0000 0.0000
vn 0.0000 0.2545 0.9671
vn -0.0008 0.0032 -1.0000
vn 0.8849 0.4657 0.0000
vn 0.0000 0.0000 1.0000
vn 0.9809 0.0000 0.1943
vn 0.0000 0.9809 0.1946
vn -0.9809 0.0000 0.1948
vn 0.0000 -0.9965 0.0836
vn 0.0000 -0.0710 0.9975
vn 0.0000 -0.0086 -1.0000
vn -0.0008 -0.0034 1.0000
vn 0.0000 -0.2673 -0.9636
vn 0.0000 0.2545 -0.9671
vn -0.0008 0.0032 1.0000
vn 0.0000 0.0000 -1.0000
vn 0.9809 0.0000 -0.1943
vn 0.0000 0.9809 -0.1946
vn -0.9809 0.0000 -0.1948
vn 0.0000 -0.9965 -0.0836
usemtl Material
s off
f 1/1/1 23/2/1 12/3/1 10/4/1
f 16/5/2 39/6/2 6/7/2 7/8/2
f 25/9/3 23/10/3 1/11/3 2/12/3
f 4/13/4 3/14/4 24/15/4 22/16/4
f 6/17/5 9/18/5 8/19/5 7/20/5
f 39/6/6 41/21/6 9/22/6 6/7/6
f 41/21/7 17/23/7 8/24/7 9/22/7
f 17/25/8 16/5/8 7/8/8 8/26/8
f 13/27/9 11/28/9 15/29/9 38/30/9
f 23/2/10 24/31/10 13/27/10 12/3/10
f 3/32/11 1/33/11 10/34/11 11/28/11
f 24/31/12 3/32/12 11/28/12 13/27/12
f 37/35/13 38/30/13 15/29/13 14/36/13
f 11/28/14 10/34/14 14/36/14 15/29/14
f 12/3/15 13/27/15 38/30/15 37/35/15
f 10/4/16 12/3/16 37/35/16 14/37/16
f 2/38/17 4/13/17 16/5/17 17/25/17
f 25/9/3 2/12/3 17/23/3 41/21/3
f 4/13/4 22/16/4 39/6/4 16/5/4
f 2/38/18 1/39/18 5/40/18
f 3/14/19 5/40/19 1/41/19
f 3/14/20 4/13/20 5/40/20
f 2/38/21 5/40/21 4/13/21
f 18/42/1 31/43/1 33/44/1 23/2/1
f 40/45/2 28/46/2 27/47/2 39/6/2
f 25/9/3 19/48/3 18/49/3 23/10/3
f 21/50/4 22/16/4 24/15/4 20/51/4
f 27/52/5 28/53/5 29/54/5 30/55/5
f 39/6/22 27/47/22 30/56/22 41/21/22
f 41/21/7 30/56/7 29/57/7 42/58/7
f 42/59/23 29/60/23 28/46/23 40/45/23
f 34/61/9 38/30/9 36/62/9 32/63/9
f 23/2/24 33/44/24 34/61/24 24/31/24
f 20/64/25 32/63/25 31/65/25 18/66/25
f 24/31/12 34/61/12 32/63/12 20/64/12
f 37/35/13 35/67/13 36/62/13 38/30/13
f 32/63/26 36/62/26 35/67/26 31/65/26
f 33/44/27 37/35/27 38/30/27 34/61/27
f 31/43/16 35/68/16 37/35/16 33/44/16
f 19/69/28 42/59/28 40/45/28 21/50/28
f 25/9/3 41/21/3 42/58/3 19/48/3
f 22/16/17 39/6/17 41/21/17 25/9/17
f 21/50/4 40/45/4 39/6/4 22/16/4
f 19/69/29 26/70/29 18/71/29
f 20/51/30 18/72/30 26/70/30
f 20/51/31 26/70/31 21/50/31
f 19/69/32 21/50/32 26/70/32
o Cube.001
v -2.556645 3.709488 -0.000000
v -2.556645 3.976010 -0.000000
v -2.159131 3.853833 -2.159131
v -2.159131 3.587312 -2.159131
v 0.000000 3.709489 -2.447592
v 0.000000 3.976011 -2.447592
v 2.159131 3.838804 -2.159131
v 2.159131 3.572284 -2.159131
v 2.657367 3.709488 -0.000000
v 2.657367 3.976010 -0.000000
v 2.159131 3.711894 2.159131
v 2.159131 3.445373 2.159131
v 0.000000 3.709488 2.443827
v 0.000000 3.976010 2.443827
v -2.159131 3.715035 2.159131
v -2.159131 3.448513 2.159131
v -1.394261 3.755767 0.138052
v -1.107759 3.648354 -1.054142
v -1.107935 4.436144 -1.044932
v -1.394437 4.543557 0.147263
v 1.337616 3.817828 1.252213
v 1.760740 4.014116 0.101676
v 1.732561 4.799090 0.264230
v 1.337640 5.341084 1.266715
v 0.014346 3.747132 -1.262740
v 0.014169 4.534922 -1.253529
v 1.100363 3.581900 0.990296
v 0.006721 3.768096 1.283073
v 0.006544 4.555885 1.292284
v 1.100187 4.369690 0.999506
v 0.011131 4.005219 -1.528246
v -1.343354 3.901197 -1.301753
v -1.343330 5.424453 -1.287250
v 0.011155 5.528474 -1.513743
v -1.654732 4.011919 0.107117
v -1.300968 3.821609 1.254883
v -1.300943 5.344865 1.269385
v -1.652995 4.755688 0.199382
v -1.053131 3.585866 0.993737
v -1.053308 4.373656 1.002948
v 1.373966 3.891299 -1.295367
v 0.005215 4.021484 1.543180
v -0.012854 4.728113 0.237663
v 0.005239 5.544740 1.557682
v 1.373991 5.414556 -1.280864
v -1.616604 4.862753 -0.301434
v -0.001099 4.848124 -0.326990
v 1.714759 4.798069 -0.194571
v 1.501794 3.758599 0.131040
v 1.147211 3.639938 -1.045913
v -0.000177 4.497278 0.009211
v 1.501618 4.546389 0.140251
v 1.147035 4.427727 -1.036702
vt 0.443830 0.563548
vt 0.358413 0.617317
vt 0.343942 0.485493
vt 0.423150 0.488695
vt 0.446067 0.419689
vt 0.370759 0.354360
vt 0.501582 0.313209
vt 0.511080 0.391164
vt 0.588397 0.407191
vt 0.640973 0.318394
vt 0.674954 0.477181
vt 0.612248 0.481692
vt 0.598039 0.566557
vt 0.674954 0.641148
vt 0.512744 0.646391
vt 0.515215 0.584400
vt 0.297063 0.313209
vt 0.337577 0.361871
vt 0.106589 0.391994
vt 0.024507 0.355239
vt 0.791422 0.840158
vt 0.751912 0.788419
vt 0.760593 0.532012
vt 0.817371 0.407670
vt 0.310555 0.415389
vt 0.109717 0.431906
vt 0.343552 0.576907
vt 0.273115 0.606179
vt 0.098254 0.527969
vt 0.130189 0.508441
vt 0.466141 0.149414
vt 0.504224 0.222288
vt 0.095488 0.201409
vt 0.000195 0.160779
vt 0.895308 0.354236
vt 0.927106 0.313209
vt 0.957359 0.771652
vt 0.894898 0.652492
vt 0.306514 0.671843
vt 0.092449 0.569762
vt 0.662740 0.052162
vt 0.599000 0.041972
vt 0.575429 0.000195
vt 0.666448 0.015573
vt 0.571170 0.181473
vt 0.595500 0.239592
vt 0.572037 0.281255
vt 0.536918 0.194649
vt 0.661323 0.229619
vt 0.734450 0.217674
vt 0.779749 0.251525
vt 0.665599 0.266113
vt 0.724330 0.139105
vt 0.734216 0.062011
vt 0.779749 0.027058
vt 0.761706 0.138984
vt 0.550134 0.123957
vt 0.504614 0.108832
vt 0.878214 0.720236
vt 0.999805 0.852533
vt 0.696401 0.483779
vt 0.860782 0.313209
vt 0.860782 0.770263
vt 0.999805 0.386686
vt 0.504224 0.074447
vt 0.092018 0.115031
vt 0.861172 0.688322
vt 0.865779 0.719006
vt 0.675344 0.519618
vt 0.741040 0.541493
vt 0.459785 0.017089
vt 0.215033 0.053418
vt 0.156057 0.000195
vt 0.205711 0.250421
vt 0.168468 0.312819
vt 0.467127 0.280321
vt 0.486274 0.530473
vt 0.515949 0.562182
vt 0.483710 0.451908
vt 0.459489 0.489600
vt 0.554589 0.451893
vt 0.514212 0.422234
vt 0.551210 0.522350
vt 0.589732 0.483268
vt 0.034641 0.473955
vt 0.121430 0.482628
vt 0.000195 0.571675
vt 0.130403 0.459142
vt 0.343552 0.467639
vt 0.299886 0.520437
vt 0.246796 0.684213
vn -0.9835 0.0000 -0.1811
vn 0.1324 0.0000 -0.9912
vn 0.9744 0.0000 0.2248
vn -0.1307 0.0000 0.9914
vn 0.9723 -0.0025 0.2339
vn 0.9338 -0.0160 0.3574
vn 0.1837 -0.0115 0.9829
vn 0.1307 0.0000 0.9914
vn -0.1324 0.0000 -0.9912
vn -0.2568 0.0112 -0.9664
vn -0.1656 0.0094 -0.9861
vn -0.9521 -0.0136 0.3055
vn 0.2615 0.0113 -0.9651
vn 0.9744 0.0000 -0.2248
vn -0.9835 -0.0000 0.1811
vn -0.0106 0.9977 -0.0672
vn 0.0732 0.9972 -0.0139
vn 0.0163 0.9897 0.1422
vn -0.1349 0.9907 0.0189
vn -0.0660 0.9977 -0.0123
vn 0.1362 0.9904 0.0214
vn -0.0172 0.9901 0.1390
vn 0.0104 0.9971 -0.0755
vn -0.0063 0.8619 -0.5070
vn 0.0059 0.8615 -0.5077
vn -0.0002 0.8621 -0.5067
vn -0.0063 0.8627 -0.5057
vn 0.2120 -0.0093 0.9772
vn -0.2142 -0.0093 0.9768
vn 0.1692 0.0094 -0.9855
vn -0.9975 0.0110 -0.0701
vn 0.0119 0.9779 0.2089
vn -0.0113 0.9932 0.1155
vn 0.9983 0.0439 -0.0388
vn 0.9587 -0.0156 -0.2840
vn -0.0127 0.8677 0.4969
vn 0.0162 0.8671 0.4978
vn -0.9701 -0.0245 -0.2415
vn 0.0144 -0.9893 -0.1449
vn 0.0688 -0.9976 0.0110
vn -0.0086 -0.9969 0.0786
vn -0.1405 -0.9899 -0.0195
vn -0.0760 -0.9970 0.0127
vn 0.1393 -0.9901 -0.0168
vn 0.0090 -0.9975 0.0702
vn -0.0134 -0.9888 -0.1484
vn -0.0567 -0.9962 -0.0654
vn 0.0590 -0.9964 -0.0614
vn 0.0252 -0.9992 0.0315
vn -0.0269 -0.9990 0.0369
vn -0.1890 -0.0115 0.9819
vn -0.9574 -0.0036 0.2888
vn 0.9292 0.0045 -0.3695
vn -0.9064 0.0047 -0.4225
usemtl Material.001
s 1
f 43/73/33 44/74/33 45/75/33 46/76/33
f 47/77/34 48/78/34 49/79/34 50/80/34
f 51/81/35 52/82/35 53/83/35 54/84/35
f 55/85/36 56/86/36 57/87/36 58/88/36
f 59/89/37 60/90/37 61/91/37 62/92/37
f 63/93/38 64/94/38 65/95/38 66/96/38
f 60/90/39 67/97/39 68/98/39 61/91/39
f 54/84/40 53/83/40 56/86/40 55/85/40
f 46/76/41 45/75/41 48/78/41 47/77/41
f 69/99/42 70/100/42 71/101/42 72/102/42
f 73/103/43 74/104/43 75/105/43 76/106/43
f 77/107/44 78/108/44 79/109/44 80/110/44
f 70/100/45 81/111/45 82/112/45 71/101/45
f 50/80/46 49/79/46 52/82/46 51/81/46
f 58/88/47 57/87/47 44/74/47 43/73/47
f 77/113/48 74/114/48 45/115/48 44/116/48
f 73/117/49 83/118/49 49/119/49 48/120/49
f 64/121/50 63/122/50 53/123/50 52/124/50
f 84/125/51 78/126/51 57/127/51 56/128/51
f 74/129/52 73/117/52 48/120/52 45/130/52
f 63/122/53 84/125/53 56/128/53 53/123/53
f 78/126/54 77/113/54 44/116/54 57/127/54
f 83/118/55 64/121/55 52/124/55 49/119/55
f 85/131/56 80/110/57 79/109/57 86/132/58
f 65/95/59 85/133/56 86/134/58 66/96/59
f 84/135/60 63/93/60 66/96/60 86/134/60
f 78/108/61 84/136/61 86/132/61 79/109/61
f 83/137/62 73/103/62 76/106/62 87/138/62
f 77/107/63 80/110/63 88/139/63
f 89/140/64 88/139/64 80/110/64 85/131/64
f 89/141/65 85/133/65 65/95/65 90/142/65
f 65/95/66 64/94/66 90/142/66
f 64/143/67 83/137/67 87/138/67 90/144/67
f 87/138/68 76/106/68 89/145/68 90/144/68
f 88/146/69 89/147/69 76/106/69 75/105/69
f 75/105/70 74/104/70 77/148/70 88/146/70
f 59/149/71 81/150/71 58/88/71 43/73/71
f 67/151/72 60/152/72 46/76/72 47/77/72
f 91/153/73 92/154/73 50/80/73 51/81/73
f 70/155/74 69/156/74 54/84/74 55/85/74
f 92/154/75 67/151/75 47/77/75 50/80/75
f 81/150/76 70/155/76 55/85/76 58/88/76
f 60/152/77 59/149/77 43/73/77 46/76/77
f 69/156/78 91/153/78 51/81/78 54/84/78
f 93/157/79 94/158/79 72/102/79 71/101/79
f 62/159/80 93/157/80 71/101/80 82/112/80
f 61/91/81 68/98/81 93/157/81 62/92/81
f 68/98/82 95/160/82 94/158/82 93/157/82
f 67/97/83 92/161/83 95/160/83 68/98/83
f 92/161/84 91/162/84 94/158/84 95/160/84
f 81/111/85 59/163/85 62/159/85 82/112/85
f 91/162/86 69/99/86 72/102/86 94/158/86
