# Blender v2.93.5 OBJ File: 'ufo.blend'
# www.blender.org
mtllib ufo_ring.mtl
o Circle.001
v -0.000000 0.000295 -0.667053
v -0.130136 0.000295 -0.654236
v -0.255270 0.000295 -0.616277
v -0.370595 0.000295 -0.554634
v -0.471678 0.000295 -0.471678
v -0.554634 0.000295 -0.370595
v -0.616277 0.000295 -0.255270
v -0.654236 0.000295 -0.130136
v -0.667053 0.000295 0.000000
v -0.654236 0.000295 0.130136
v -0.616277 0.000295 0.255270
v -0.554634 0.000295 0.370595
v -0.471678 0.000295 0.471678
v -0.370595 0.000295 0.554634
v -0.255270 0.000295 0.616277
v -0.130136 0.000295 0.654236
v 0.000000 0.000295 0.667053
v 0.130136 0.000295 0.654236
v 0.255270 0.000295 0.616277
v 0.370595 0.000295 0.554634
v 0.471678 0.000295 0.471678
v 0.554634 0.000295 0.370595
v 0.616277 0.000295 0.255270
v 0.654236 0.000295 0.130136
v 0.667053 0.000295 -0.000000
v 0.654236 0.000295 -0.130136
v 0.616277 0.000295 -0.255270
v 0.554635 0.000295 -0.370595
v 0.471678 0.000295 -0.471678
v 0.370595 0.000295 -0.554634
v 0.255270 0.000295 -0.616277
v 0.130136 0.000295 -0.654236
v -0.107455 0.000295 -0.540211
v 0.000000 0.000295 -0.550794
v -0.210780 0.000295 -0.508867
v -0.306005 0.000295 -0.457969
v -0.389470 0.000295 -0.389470
v -0.457969 0.000295 -0.306005
v -0.508867 0.000295 -0.210780
v -0.540211 0.000295 -0.107455
v -0.550794 0.000295 0.000000
v -0.540211 0.000295 0.107455
v -0.508867 0.000295 0.210780
v -0.457969 0.000295 0.306005
v -0.389470 0.000295 0.389470
v -0.306005 0.000295 0.457969
v -0.210780 0.000295 0.508867
v -0.107455 0.000295 0.540211
v 0.000000 0.000295 0.550794
v 0.107455 0.000295 0.540211
v 0.210780 0.000295 0.508867
v 0.306005 0.000295 0.457969
v 0.389470 0.000295 0.389470
v 0.457968 0.000295 0.306005
v 0.508867 0.000295 0.210780
v 0.540211 0.000295 0.107455
v 0.550794 0.000295 -0.000000
v 0.540211 0.000295 -0.107455
v 0.508867 0.000295 -0.210780
v 0.457969 0.000295 -0.306005
v 0.389470 0.000295 -0.389470
v 0.306005 0.000295 -0.457969
v 0.210780 0.000295 -0.508867
v 0.107455 0.000295 -0.540211
v -0.118717 0.039154 -0.596830
v 0.000000 0.039154 -0.608523
v -0.232872 0.039154 -0.562202
v -0.338077 0.039154 -0.505968
v -0.430291 0.039154 -0.430291
v -0.505968 0.039154 -0.338077
v -0.562202 0.039154 -0.232872
v -0.596830 0.039154 -0.118717
v -0.608523 0.039154 0.000000
v -0.596830 0.039154 0.118717
v -0.562202 0.039154 0.232872
v -0.505968 0.039154 0.338077
v -0.430291 0.039154 0.430291
v -0.338077 0.039154 0.505968
v -0.232872 0.039154 0.562202
v -0.118717 0.039154 0.596830
v 0.000000 0.039154 0.608523
v 0.118717 0.039154 0.596830
v 0.232872 0.039154 0.562202
v 0.338077 0.039154 0.505968
v 0.430291 0.039154 0.430291
v 0.505968 0.039154 0.338077
v 0.562202 0.039154 0.232872
v 0.596830 0.039154 0.118717
v 0.608523 0.039154 -0.000000
v 0.596830 0.039154 -0.118717
v 0.562202 0.039154 -0.232872
v 0.505968 0.039154 -0.338077
v 0.430291 0.039154 -0.430291
v 0.338077 0.039154 -0.505968
v 0.232872 0.039154 -0.562202
v 0.118717 0.039154 -0.596830
v -0.000000 -0.000140 -0.667053
v -0.130136 -0.000140 -0.654236
v -0.255270 -0.000140 -0.616277
v -0.370595 -0.000140 -0.554634
v -0.471678 -0.000140 -0.471678
v -0.554634 -0.000140 -0.370595
v -0.616277 -0.000140 -0.255270
v -0.654236 -0.000140 -0.130136
v -0.667053 -0.000140 0.000000
v -0.654236 -0.000140 0.130136
v -0.616277 -0.000140 0.255270
v -0.554634 -0.000140 0.370595
v -0.471678 -0.000140 0.471678
v -0.370595 -0.000140 0.554634
v -0.255270 -0.000140 0.616277
v -0.130136 -0.000140 0.654236
v 0.000000 -0.000140 0.667053
v 0.130136 -0.000140 0.654236
v 0.255270 -0.000140 0.616277
v 0.370595 -0.000140 0.554634
v 0.471678 -0.000140 0.471678
v 0.554634 -0.000140 0.370595
v 0.616277 -0.000140 0.255270
v 0.654236 -0.000140 0.130136
v 0.667053 -0.000140 -0.000000
v 0.654236 -0.000140 -0.130136
v 0.616277 -0.000140 -0.255270
v 0.554635 -0.000140 -0.370595
v 0.471678 -0.000140 -0.471678
v 0.370595 -0.000140 -0.554634
v 0.255270 -0.000140 -0.616277
v 0.130136 -0.000140 -0.654236
v -0.107455 -0.000140 -0.540211
v 0.000000 -0.000140 -0.550794
v -0.210780 -0.000140 -0.508867
v -0.306005 -0.000140 -0.457969
v -0.389470 -0.000140 -0.389470
v -0.457969 -0.000140 -0.306005
v -0.508867 -0.000140 -0.210780
v -0.540211 -0.000140 -0.107455
v -0.550794 -0.000140 0.000000
v -0.540211 -0.000140 0.107455
v -0.508867 -0.000140 0.210780
v -0.457969 -0.000140 0.306005
v -0.389470 -0.000140 0.389470
v -0.306005 -0.000140 0.457969
v -0.210780 -0.000140 0.508867
v -0.107455 -0.000140 0.540211
v 0.000000 -0.000140 0.550794
v 0.107455 -0.000140 0.540211
v 0.210780 -0.000140 0.508867
v 0.306005 -0.000140 0.457969
v 0.389470 -0.000140 0.389470
v 0.457968 -0.000140 0.306005
v 0.508867 -0.000140 0.210780
v 0.540211 -0.000140 0.107455
v 0.550794 -0.000140 -0.000000
v 0.540211 -0.000140 -0.107455
v 0.508867 -0.000140 -0.210780
v 0.457969 -0.000140 -0.306005
v 0.389470 -0.000140 -0.389470
v 0.306005 -0.000140 -0.457969
v 0.210780 -0.000140 -0.508867
v 0.107455 -0.000140 -0.540211
v -0.118717 -0.038999 -0.596830
v 0.000000 -0.038999 -0.608523
v -0.232872 -0.038999 -0.562202
v -0.338077 -0.038999 -0.505968
v -0.430291 -0.038999 -0.430291
v -0.505968 -0.038999 -0.338077
v -0.562202 -0.038999 -0.232872
v -0.596830 -0.038999 -0.118717
v -0.608523 -0.038999 0.000000
v -0.596830 -0.038999 0.118717
v -0.562202 -0.038999 0.232872
v -0.505968 -0.038999 0.338077
v -0.430291 -0.038999 0.430291
v -0.338077 -0.038999 0.505968
v -0.232872 -0.038999 0.562202
v -0.118717 -0.038999 0.596830
v 0.000000 -0.038999 0.608523
v 0.118717 -0.038999 0.596830
v 0.232872 -0.038999 0.562202
v 0.338077 -0.038999 0.505968
v 0.430291 -0.038999 0.430291
v 0.505968 -0.038999 0.338077
v 0.562202 -0.038999 0.232872
v 0.596830 -0.038999 0.118717
v 0.608523 -0.038999 -0.000000
v 0.596830 -0.038999 -0.118717
v 0.562202 -0.038999 -0.232872
v 0.505968 -0.038999 -0.338077
v 0.430291 -0.038999 -0.430291
v 0.338077 -0.038999 -0.505968
v 0.232872 -0.038999 -0.562202
v 0.118717 -0.038999 -0.596830
vt 0.000000 0.000000
vt 0.000000 0.000000
vt 0.000000 0.000000
vt 0.000000 0.000000
vt 0.000000 0.000000
vt 0.000000 0.000000
vt 0.000000 0.000000
vt 0.000000 0.000000
vt 0.000000 0.000000
vt 0.000000 0.000000
vt 0.000000 0.000000
vt 0.000000 0.000000
vt 0.000000 0.000000
vt 0.000000 0.000000
vt 0.000000 0.000000
vt 0.000000 0.000000
vt 0.000000 0.000000
vt 0.000000 0.000000
vt 0.000000 0.000000
vt 0.000000 0.000000
vt 0.000000 0.000000
vt 0.000000 0.000000
vt 0.000000 0.000000
vt 0.000000 0.000000
vt 0.000000 0.000000
vt 0.000000 0.000000
vt 0.000000 0.000000
vt 0.000000 0.000000
vt 0.000000 0.000000
vt 0.000000 0.000000
vt 0.000000 0.000000
vt 0.000000 0.000000
vt 0.000000 0.000000
vt 0.000000 0.000000
vt 0.000000 0.000000
vt 0.000000 0.000000
vt 0.000000 0.000000
vt 0.000000 0.000000
vt 0.000000 0.000000
vt 0.000000 0.000000
vt 0.000000 0.000000
vt 0.000000 0.000000
vt 0.000000 0.000000
vt 0.000000 0.000000
vt 0.000000 0.000000
vt 0.000000 0.000000
vt 0.000000 0.000000
vt 0.000000 0.000000
vt 0.000000 0.000000
vt 0.000000 0.000000
vt 0.000000 0.000000
vt 0.000000 0.000000
vt 0.000000 0.000000
vt 0.000000 0.000000
vt 0.000000 0.000000
vt 0.000000 0.000000
vt 0.000000 0.000000
vt 0.000000 0.000000
vt 0.000000 0.000000
vt 0.000000 0.000000
vt 0.000000 0.000000
vt 0.000000 0.000000
vt 0.000000 0.000000
vt 0.000000 0.000000
vt 0.000000 0.000000
vt 0.000000 0.000000
vt 0.000000 0.000000
vt 0.000000 0.000000
vt 0.000000 0.000000
vt 0.000000 0.000000
vt 0.000000 0.000000
vt 0.000000 0.000000
vt 0.000000 0.000000
vt 0.000000 0.000000
vt 0.000000 0.000000
vt 0.000000 0.000000
vt 0.000000 0.000000
vt 0.000000 0.000000
vt 0.000000 0.000000
vt 0.000000 0.000000
vt 0.000000 0.000000
vt 0.000000 0.000000
vt 0.000000 0.000000
vt 0.000000 0.000000
vt 0.000000 0.000000
vt 0.000000 0.000000
vt 0.000000 0.000000
vt 0.000000 0.000000
vt 0.000000 0.000000
vt 0.000000 0.000000
vt 0.000000 0.000000
vt 0.000000 0.000000
vt 0.000000 0.000000
vt 0.000000 0.000000
vt 0.000000 0.000000
vt 0.000000 0.000000
vt 0.000000 0.000000
vt 0.000000 0.000000
vt 0.000000 0.000000
vt 0.000000 0.000000
vt 0.000000 0.000000
vt 0.000000 0.000000
vt 0.000000 0.000000
vt 0.000000 0.000000
vt 0.000000 0.000000
vt 0.000000 0.000000
vt 0.000000 0.000000
vt 0.000000 0.000000
vt 0.000000 0.000000
vt 0.000000 0.000000
vt 0.000000 0.000000
vt 0.000000 0.000000
vt 0.000000 0.000000
vt 0.000000 0.000000
vt 0.000000 0.000000
vt 0.000000 0.000000
vt 0.000000 0.000000
vt 0.000000 0.000000
vt 0.000000 0.000000
vt 0.000000 0.000000
vt 0.000000 0.000000
vt 0.000000 0.000000
vt 0.000000 0.000000
vt 0.000000 0.000000
vt 0.000000 0.000000
vt 0.000000 0.000000
vt 0.000000 0.000000
vt 0.000000 0.000000
vt 0.000000 0.000000
vt 0.000000 0.000000
vt 0.000000 0.000000
vt 0.000000 0.000000
vt 0.000000 0.000000
vt 0.000000 0.000000
vt 0.000000 0.000000
vt 0.000000 0.000000
vt 0.000000 0.000000
vt 0.000000 0.000000
vt 0.000000 0.000000
vt 0.000000 0.000000
vt 0.000000 0.000000
vt 0.000000 0.000000
vt 0.000000 0.000000
vt 0.000000 0.000000
vt 0.000000 0.000000
vt 0.000000 0.000000
vt 0.000000 0.000000
vt 0.000000 0.000000
vt 0.000000 0.000000
vt 0.000000 0.000000
vt 0.000000 0.000000
vt 0.000000 0.000000
vt 0.000000 0.000000
vt 0.000000 0.000000
vt 0.000000 0.000000
vt 0.000000 0.000000
vt 0.000000 0.000000
vt 0.000000 0.000000
vt 0.000000 0.000000
vt 0.000000 0.000000
vt 0.000000 0.000000
vt 0.000000 0.000000
vt 0.000000 0.000000
vt 0.000000 0.000000
vt 0.000000 0.000000
vt 0.000000 0.000000
vt 0.000000 0.000000
vt 0.000000 0.000000
vt 0.000000 0.000000
vt 0.000000 0.000000
vt 0.000000 0.000000
vt 0.000000 0.000000
vt 0.000000 0.000000
vt 0.000000 0.000000
vt 0.000000 0.000000
vt 0.000000 0.000000
vt 0.000000 0.000000
vt 0.000000 0.000000
vt 0.000000 0.000000
vt 0.000000 0.000000
vt 0.000000 0.000000
vt 0.000000 0.000000
vt 0.000000 0.000000
vt 0.000000 0.000000
vt 0.000000 0.000000
vt 0.000000 0.000000
vt 0.000000 0.000000
vt 0.000000 0.000000
vt 0.000000 0.000000
vt 0.000000 0.000000
vt 0.000000 0.000000
vt 0.000000 0.000000
vn -0.0544 0.8319 -0.5523
vn -0.1611 0.8319 -0.5311
vn -0.2616 0.8319 -0.4894
vn -0.3521 0.8319 -0.4290
vn -0.4290 0.8319 -0.3521
vn -0.4894 0.8319 -0.2616
vn -0.5311 0.8319 -0.1611
vn -0.5523 0.8319 -0.0544
vn -0.5523 0.8319 0.0544
vn -0.5311 0.8319 0.1611
vn -0.4894 0.8319 0.2616
vn -0.4290 0.8319 0.3521
vn -0.3521 0.8319 0.4290
vn -0.2616 0.8319 0.4894
vn -0.1611 0.8319 0.5311
vn -0.0544 0.8319 0.5523
vn 0.0544 0.8319 0.5523
vn 0.1611 0.8319 0.5311
vn 0.2616 0.8319 0.4894
vn 0.3521 0.8319 0.4290
vn 0.4290 0.8319 0.3521
vn 0.4894 0.8319 0.2616
vn 0.5311 0.8319 0.1611
vn 0.5523 0.8319 0.0544
vn 0.5523 0.8319 -0.0544
vn 0.5311 0.8319 -0.1611
vn 0.4894 0.8319 -0.2616
vn 0.4290 0.8319 -0.3521
vn 0.3521 0.8319 -0.4290
vn 0.2616 0.8319 -0.4894
vn 0.1611 0.8319 -0.5311
vn 0.0544 0.8319 -0.5523
vn 0.0549 0.8283 0.5576
vn 0.1626 0.8283 0.5361
vn 0.2641 0.8283 0.4941
vn 0.3554 0.8283 0.4331
vn 0.4331 0.8283 0.3554
vn 0.4941 0.8283 0.2641
vn 0.5361 0.8283 0.1626
vn 0.5576 0.8283 0.0549
vn 0.5576 0.8283 -0.0549
vn 0.5361 0.8283 -0.1626
vn 0.4941 0.8283 -0.2641
vn 0.4331 0.8283 -0.3554
vn 0.3554 0.8283 -0.4331
vn 0.2641 0.8283 -0.4941
vn 0.1626 0.8283 -0.5361
vn 0.0549 0.8283 -0.5576
vn -0.0549 0.8283 -0.5576
vn -0.1626 0.8283 -0.5361
vn -0.2641 0.8283 -0.4941
vn -0.3554 0.8283 -0.4331
vn -0.4331 0.8283 -0.3554
vn -0.4941 0.8283 -0.2641
vn -0.5361 0.8283 -0.1626
vn -0.5576 0.8283 -0.0549
vn -0.5576 0.8283 0.0549
vn -0.5361 0.8283 0.1626
vn -0.4941 0.8283 0.2641
vn -0.4331 0.8283 0.3554
vn -0.3554 0.8283 0.4331
vn -0.2641 0.8283 0.4941
vn -0.1626 0.8283 0.5361
vn -0.0549 0.8283 0.5576
usemtl None
s off
f 65/1/1 66/2/1 1/3/1 2/4/1
f 67/5/2 65/1/2 2/4/2 3/6/2
f 68/7/3 67/5/3 3/6/3 4/8/3
f 69/9/4 68/7/4 4/8/4 5/10/4
f 70/11/5 69/9/5 5/10/5 6/12/5
f 71/13/6 70/11/6 6/12/6 7/14/6
f 72/15/7 71/13/7 7/14/7 8/16/7
f 73/17/8 72/15/8 8/16/8 9/18/8
f 74/19/9 73/17/9 9/18/9 10/20/9
f 75/21/10 74/19/10 10/20/10 11/22/10
f 76/23/11 75/21/11 11/22/11 12/24/11
f 77/25/12 76/23/12 12/24/12 13/26/12
f 78/27/13 77/25/13 13/26/13 14/28/13
f 79/29/14 78/27/14 14/28/14 15/30/14
f 80/31/15 79/29/15 15/30/15 16/32/15
f 81/33/16 80/31/16 16/32/16 17/34/16
f 82/35/17 81/33/17 17/34/17 18/36/17
f 83/37/18 82/35/18 18/36/18 19/38/18
f 84/39/19 83/37/19 19/38/19 20/40/19
f 85/41/20 84/39/20 20/40/20 21/42/20
f 86/43/21 85/41/21 21/42/21 22/44/21
f 87/45/22 86/43/22 22/44/22 23/46/22
f 88/47/23 87/45/23 23/46/23 24/48/23
f 89/49/24 88/47/24 24/48/24 25/50/24
f 90/51/25 89/49/25 25/50/25 26/52/25
f 91/53/26 90/51/26 26/52/26 27/54/26
f 92/55/27 91/53/27 27/54/27 28/56/27
f 93/57/28 92/55/28 28/56/28 29/58/28
f 94/59/29 93/57/29 29/58/29 30/60/29
f 95/61/30 94/59/30 30/60/30 31/62/30
f 96/63/31 95/61/31 31/62/31 32/64/31
f 66/2/32 96/63/32 32/64/32 1/3/32
f 33/65/33 34/66/33 66/2/33 65/1/33
f 35/67/34 33/65/34 65/1/34 67/5/34
f 36/68/35 35/67/35 67/5/35 68/7/35
f 37/69/36 36/68/36 68/7/36 69/9/36
f 38/70/37 37/69/37 69/9/37 70/11/37
f 39/71/38 38/70/38 70/11/38 71/13/38
f 40/72/39 39/71/39 71/13/39 72/15/39
f 41/73/40 40/72/40 72/15/40 73/17/40
f 42/74/41 41/73/41 73/17/41 74/19/41
f 43/75/42 42/74/42 74/19/42 75/21/42
f 44/76/43 43/75/43 75/21/43 76/23/43
f 45/77/44 44/76/44 76/23/44 77/25/44
f 46/78/45 45/77/45 77/25/45 78/27/45
f 47/79/46 46/78/46 78/27/46 79/29/46
f 48/80/47 47/79/47 79/29/47 80/31/47
f 49/81/48 48/80/48 80/31/48 81/33/48
f 50/82/49 49/81/49 81/33/49 82/35/49
f 51/83/50 50/82/50 82/35/50 83/37/50
f 52/84/51 51/83/51 83/37/51 84/39/51
f 53/85/52 52/84/52 84/39/52 85/41/52
f 54/86/53 53/85/53 85/41/53 86/43/53
f 55/87/54 54/86/54 86/43/54 87/45/54
f 56/88/55 55/87/55 87/45/55 88/47/55
f 57/89/56 56/88/56 88/47/56 89/49/56
f 58/90/57 57/89/57 89/49/57 90/51/57
f 59/91/58 58/90/58 90/51/58 91/53/58
f 60/92/59 59/91/59 91/53/59 92/55/59
f 61/93/60 60/92/60 92/55/60 93/57/60
f 62/94/61 61/93/61 93/57/61 94/59/61
f 63/95/62 62/94/62 94/59/62 95/61/62
f 64/96/63 63/95/63 95/61/63 96/63/63
f 34/66/64 64/96/64 96/63/64 66/2/64
f 161/97/17 162/98/17 97/99/17 98/100/17
f 163/101/18 161/97/18 98/100/18 99/102/18
f 164/103/19 163/101/19 99/102/19 100/104/19
f 165/105/20 164/103/20 100/104/20 101/106/20
f 166/107/21 165/105/21 101/106/21 102/108/21
f 167/109/22 166/107/22 102/108/22 103/110/22
f 168/111/23 167/109/23 103/110/23 104/112/23
f 169/113/24 168/111/24 104/112/24 105/114/24
f 170/115/25 169/113/25 105/114/25 106/116/25
f 171/117/26 170/115/26 106/116/26 107/118/26
f 172/119/27 171/117/27 107/118/27 108/120/27
f 173/121/28 172/119/28 108/120/28 109/122/28
f 174/123/29 173/121/29 109/122/29 110/124/29
f 175/125/30 174/123/30 110/124/30 111/126/30
f 176/127/31 175/125/31 111/126/31 112/128/31
f 177/129/32 176/127/32 112/128/32 113/130/32
f 178/131/1 177/129/1 113/130/1 114/132/1
f 179/133/2 178/131/2 114/132/2 115/134/2
f 180/135/3 179/133/3 115/134/3 116/136/3
f 181/137/4 180/135/4 116/136/4 117/138/4
f 182/139/5 181/137/5 117/138/5 118/140/5
f 183/141/6 182/139/6 118/140/6 119/142/6
f 184/143/7 183/141/7 119/142/7 120/144/7
f 185/145/8 184/143/8 120/144/8 121/146/8
f 186/147/9 185/145/9 121/146/9 122/148/9
f 187/149/10 186/147/10 122/148/10 123/150/10
f 188/151/11 187/149/11 123/150/11 124/152/11
f 189/153/12 188/151/12 124/152/12 125/154/12
f 190/155/13 189/153/13 125/154/13 126/156/13
f 191/157/14 190/155/14 126/156/14 127/158/14
f 192/159/15 191/157/15 127/158/15 128/160/15
f 162/98/16 192/159/16 128/160/16 97/99/16
f 129/161/49 130/162/49 162/98/49 161/97/49
f 131/163/50 129/161/50 161/97/50 163/101/50
f 132/164/51 131/163/51 163/101/51 164/103/51
f 133/165/52 132/164/52 164/103/52 165/105/52
f 134/166/53 133/165/53 165/105/53 166/107/53
f 135/167/54 134/166/54 166/107/54 167/109/54
f 136/168/55 135/167/55 167/109/55 168/111/55
f 137/169/56 136/168/56 168/111/56 169/113/56
f 138/170/57 137/169/57 169/113/57 170/115/57
f 139/171/58 138/170/58 170/115/58 171/117/58
f 140/172/59 139/171/59 171/117/59 172/119/59
f 141/173/60 140/172/60 172/119/60 173/121/60
f 142/174/61 141/173/61 173/121/61 174/123/61
f 143/175/62 142/174/62 174/123/62 175/125/62
f 144/176/63 143/175/63 175/125/63 176/127/63
f 145/177/64 144/176/64 176/127/64 177/129/64
f 146/178/33 145/177/33 177/129/33 178/131/33
f 147/179/34 146/178/34 178/131/34 179/133/34
f 148/180/35 147/179/35 179/133/35 180/135/35
f 149/181/36 148/180/36 180/135/36 181/137/36
f 150/182/37 149/181/37 181/137/37 182/139/37
f 151/183/38 150/182/38 182/139/38 183/141/38
f 152/184/39 151/183/39 183/141/39 184/143/39
f 153/185/40 152/184/40 184/143/40 185/145/40
f 154/186/41 153/185/41 185/145/41 186/147/41
f 155/187/42 154/186/42 186/147/42 187/149/42
f 156/188/43 155/187/43 187/149/43 188/151/43
f 157/189/44 156/188/44 188/151/44 189/153/44
f 158/190/45 157/189/45 189/153/45 190/155/45
f 159/191/46 158/190/46 190/155/46 191/157/46
f 160/192/47 159/191/47 191/157/47 192/159/47
f 130/162/48 160/192/48 192/159/48 162/98/48
