# Blender v2.93.5 OBJ File: 'ufo_top.blend'
# www.blender.org
mtllib ufo_top.mtl
o Cube.001_Cube.002
v 0.003528 -0.264518 0.680900
v 0.680918 -0.264518 -0.004331
v -0.681211 -0.264518 0.003538
v -0.002940 -0.264518 -0.681350
v 0.481936 -0.264518 -0.481625
v -0.481994 -0.264518 0.479272
v 0.479050 -0.264518 0.481771
v -0.480083 -0.264518 -0.481575
v 0.747013 0.028257 0.748942
v 0.653098 0.082186 -0.004312
v 0.749179 0.028257 -0.750008
v -0.002860 0.082186 -0.653538
v -0.748152 0.028258 -0.748711
v -0.653385 0.082186 0.003489
v -0.749164 0.028258 0.747236
v 0.003487 0.082186 0.653070
v 0.825684 -0.020563 0.827381
v 1.171219 -0.020563 -0.004669
v 0.827639 -0.020563 -0.828803
v -0.004358 -0.020563 -1.171510
v -0.826854 -0.020563 -0.827139
v -1.171613 -0.020563 0.004407
v -0.827603 -0.020563 0.825907
v 0.004255 -0.020563 1.171361
v 0.459381 0.082186 0.462161
v 1.059941 0.028257 -0.004593
v 0.462320 0.082186 -0.461926
v -0.004036 0.028257 -1.060265
v -0.460407 0.082186 -0.461967
v -1.060313 0.028258 0.004210
v -0.462383 0.082186 0.459604
v 0.004090 0.028257 1.060047
v -0.181358 0.626849 0.177744
v -0.462383 0.224352 0.459604
v 0.462320 0.224352 -0.461926
v 0.181219 0.626849 -0.179625
v -0.178437 0.626849 -0.180978
v -0.460407 0.224352 -0.461967
v 0.459381 0.224352 0.462161
v 0.177522 0.626849 0.181135
v 0.254421 0.626849 -0.004037
v 0.653098 0.224352 -0.004312
v -0.001707 0.626849 -0.254973
v -0.002860 0.224352 -0.653538
v -0.254625 0.626849 0.002783
v -0.653385 0.224352 0.003489
v 0.002896 0.626849 0.254261
v 0.003487 0.224352 0.653070
v 0.354787 0.442896 0.357876
v 0.505154 0.442896 -0.004210
v 0.358007 0.442896 -0.357167
v -0.002432 0.442896 -0.505635
v -0.355772 0.442896 -0.357696
v -0.505410 0.442896 0.003227
v -0.358098 0.442896 0.355009
v 0.003268 0.442896 0.505077
v -0.181358 0.626849 0.177744
v 0.181219 0.626849 -0.179625
v -0.178437 0.626849 -0.180978
v 0.177522 0.626849 0.181135
v 0.254421 0.626849 -0.004037
v -0.001707 0.626849 -0.254973
v -0.254625 0.626849 0.002783
v 0.002896 0.626849 0.254261
v 0.000592 0.700823 -0.000637
v 0.997315 -0.175434 0.998503
v 1.413983 -0.175434 -0.004837
v 0.998808 -0.175434 -1.000703
v -0.005059 -0.175434 -1.414205
v -0.998552 -0.175434 -0.998240
v -1.414428 -0.175434 0.004837
v -0.998726 -0.175434 0.997538
v 0.004614 -0.175434 1.414205
v 0.794679 -0.264518 0.796466
v 1.127362 -0.264518 -0.004639
v 0.796716 -0.264518 -0.797749
v -0.004231 -0.264518 -1.127666
v -0.795836 -0.264518 -0.796229
v -1.127748 -0.264517 0.004329
v -0.796689 -0.264518 0.794901
v 0.004190 -0.264518 1.127490
vt 0.367141 0.307525
vt 0.344879 0.231232
vt 0.367601 0.229322
vt 0.386883 0.297041
vt 0.398932 0.077623
vt 0.470445 0.026790
vt 0.481650 0.049403
vt 0.416850 0.093640
vt 0.357013 0.149250
vt 0.379143 0.156740
vt 0.172668 0.391998
vt 0.172905 0.499450
vt 0.135642 0.499398
vt 0.142031 0.389240
vt 0.172290 0.605729
vt 0.192023 0.712349
vt 0.154411 0.718900
vt 0.141713 0.608421
vt 0.212446 0.823599
vt 0.276583 0.959401
vt 0.224945 0.999903
vt 0.179421 0.832993
vt 0.213332 0.174448
vt 0.192334 0.286624
vt 0.154854 0.279983
vt 0.180366 0.164977
vt 0.277127 0.040626
vt 0.225744 0.000097
vt 0.186990 0.393317
vt 0.187608 0.499479
vt 0.186602 0.604434
vt 0.206879 0.709561
vt 0.228001 0.818239
vt 0.291852 0.943277
vt 0.228846 0.179845
vt 0.207158 0.289453
vt 0.292305 0.056779
vt 0.251143 0.399100
vt 0.261388 0.499761
vt 0.250768 0.598633
vt 0.279038 0.695416
vt 0.290519 0.795060
vt 0.344684 0.877354
vt 0.291177 0.203112
vt 0.279099 0.303995
vt 0.344684 0.122872
vt 0.560680 0.422217
vt 0.483396 0.405925
vt 0.490417 0.385711
vt 0.565277 0.400412
vt 0.416027 0.369773
vt 0.429827 0.352769
vt 0.416023 0.170536
vt 0.406758 0.227246
vt 0.420675 0.280293
vt 0.454457 0.323888
vt 0.502220 0.349910
vt 0.563387 0.355763
vt 0.498092 0.088534
vt 0.446656 0.122165
vt 0.565277 0.077564
vt 0.564764 0.026375
vt 0.557163 0.000097
vt 0.463714 0.189272
vt 0.459458 0.225435
vt 0.465139 0.259023
vt 0.487468 0.285266
vt 0.515572 0.302851
vt 0.549397 0.303063
vt 0.516024 0.139665
vt 0.485008 0.161267
vt 0.552238 0.137576
vt 0.424661 0.478326
vt 0.404179 0.500408
vt 0.385752 0.462414
vt 0.424661 0.446427
vt 0.403910 0.424396
vt 0.372507 0.502493
vt 0.372499 0.422412
vt 0.349014 0.441842
vt 0.349087 0.483463
vt 0.344879 0.473219
vt 0.094039 0.499378
vt 0.109242 0.386377
vt 0.112674 0.725907
vt 0.108982 0.611173
vt 0.157304 0.991172
vt 0.143661 0.839921
vt 0.113242 0.272929
vt 0.144669 0.157969
vt 0.158264 0.008689
vt 0.000097 0.499563
vt 0.031368 0.379123
vt 0.022675 0.739495
vt 0.031061 0.618030
vt 0.064041 0.960312
vt 0.067824 0.851497
vt 0.023388 0.259558
vt 0.069042 0.146212
vt 0.065152 0.039596
vn -0.9230 0.0000 0.3848
vn 0.3835 0.0000 -0.9235
vn -0.9235 0.0000 -0.3835
vn -0.5250 -0.8227 -0.2180
vn -0.2165 -0.8227 0.5256
vn 0.5251 -0.8227 0.2177
vn 0.2180 -0.8227 -0.5250
vn -0.5247 -0.8227 0.2187
vn 0.5243 -0.8227 -0.2196
vn -0.2196 -0.8227 -0.5243
vn 0.2195 -0.8227 0.5244
vn -0.3964 -0.9032 -0.1646
vn -0.1635 -0.9032 0.3968
vn 0.3965 -0.9032 0.1644
vn 0.1646 -0.9032 -0.3964
vn -0.3961 -0.9032 0.1652
vn 0.3959 -0.9032 -0.1658
vn -0.1658 -0.9032 -0.3959
vn 0.1658 -0.9032 0.3959
vn -0.1312 -0.9899 -0.0545
vn -0.0541 -0.9899 0.1314
vn 0.1313 -0.9899 0.0544
vn 0.0545 -0.9899 -0.1312
vn -0.1312 -0.9899 0.0547
vn 0.1311 -0.9899 -0.0549
vn -0.0549 -0.9899 -0.1311
vn 0.0549 -0.9899 0.1311
vn 0.9238 0.0000 0.3830
vn 0.3862 0.0000 0.9224
vn -0.3863 0.0000 -0.9224
vn -0.3809 0.0000 0.9246
vn -0.7831 -0.5300 -0.3252
vn -0.3230 -0.5300 0.7841
vn 0.7833 -0.5300 0.3248
vn 0.3252 -0.5300 -0.7831
vn -0.7827 -0.5300 0.3263
vn 0.7822 -0.5300 -0.3275
vn -0.3275 -0.5300 -0.7822
vn 0.3275 -0.5300 0.7822
vn 0.9224 0.0000 -0.3863
vn -0.5746 -0.7829 -0.2386
vn -0.2369 -0.7829 0.5752
vn 0.5747 -0.7829 0.2383
vn 0.2386 -0.7829 -0.5746
vn -0.5742 -0.7829 0.2394
vn 0.5738 -0.7829 -0.2403
vn -0.2403 -0.7829 -0.5738
vn 0.2403 -0.7829 0.5739
vn -0.1155 -0.9542 -0.2759
vn -0.2765 -0.9541 0.1153
vn 0.1154 -0.9537 -0.2778
vn 0.1157 -0.9540 0.2764
vn -0.1147 -0.9536 0.2784
vn -0.2793 -0.9532 -0.1160
vn 0.2751 -0.9545 -0.1152
vn 0.2780 -0.9537 0.1152
vn -0.2946 0.9477 -0.1224
vn -0.1215 0.9477 0.2950
vn 0.2947 0.9477 0.1222
vn 0.1224 0.9477 -0.2946
vn -0.2945 0.9477 0.1228
vn 0.2943 0.9477 -0.1232
vn -0.1232 0.9477 -0.2943
vn 0.1232 0.9477 0.2943
vn 0.0000 1.0000 -0.0000
usemtl Material
s off
f 27/1/1 10/2/1 42/3/1 35/4/1
f 16/5/2 31/6/2 34/7/2 48/8/2
f 10/2/3 25/9/3 39/10/3 42/3/3
f 17/11/4 18/12/4 67/13/4 66/14/4
f 19/15/5 20/16/5 69/17/5 68/18/5
f 21/19/6 22/20/6 71/21/6 70/22/6
f 23/23/7 24/24/7 73/25/7 72/26/7
f 18/12/8 19/15/8 68/18/8 67/13/8
f 22/27/9 23/23/9 72/26/9 71/28/9
f 24/24/10 17/11/10 66/14/10 73/25/10
f 20/16/11 21/19/11 70/22/11 69/17/11
f 9/29/12 26/30/12 18/12/12 17/11/12
f 11/31/13 28/32/13 20/16/13 19/15/13
f 13/33/14 30/34/14 22/20/14 21/19/14
f 15/35/15 32/36/15 24/24/15 23/23/15
f 26/30/16 11/31/16 19/15/16 18/12/16
f 30/37/17 15/35/17 23/23/17 22/27/17
f 32/36/18 9/29/18 17/11/18 24/24/18
f 28/32/19 13/33/19 21/19/19 20/16/19
f 25/38/20 10/39/20 26/30/20 9/29/20
f 27/40/21 12/41/21 28/32/21 11/31/21
f 29/42/22 14/43/22 30/34/22 13/33/22
f 31/44/23 16/45/23 32/36/23 15/35/23
f 10/39/24 27/40/24 11/31/24 26/30/24
f 14/46/25 31/44/25 15/35/25 30/37/25
f 16/45/26 25/38/26 9/29/26 32/36/26
f 12/41/27 29/42/27 13/33/27 28/32/27
f 14/47/28 29/48/28 38/49/28 46/50/28
f 29/48/29 12/51/29 44/52/29 38/49/29
f 25/9/30 16/5/30 48/8/30 39/10/30
f 12/51/31 27/1/31 35/4/31 44/52/31
f 49/53/32 50/54/32 42/3/32 39/10/32
f 51/55/33 52/56/33 44/52/33 35/4/33
f 53/57/34 54/58/34 46/50/34 38/49/34
f 55/59/35 56/60/35 48/8/35 34/7/35
f 50/54/36 51/55/36 35/4/36 42/3/36
f 54/61/37 55/59/37 34/7/37 46/62/37
f 56/60/38 49/53/38 39/10/38 48/8/38
f 52/56/39 53/57/39 38/49/39 44/52/39
f 31/6/40 14/63/40 46/62/40 34/7/40
f 40/64/41 41/65/41 50/54/41 49/53/41
f 36/66/42 43/67/42 52/56/42 51/55/42
f 37/68/43 45/69/43 54/58/43 53/57/43
f 33/70/44 47/71/44 56/60/44 55/59/44
f 41/65/45 36/66/45 51/55/45 50/54/45
f 45/72/46 33/70/46 55/59/46 54/61/46
f 47/71/47 40/64/47 49/53/47 56/60/47
f 43/67/48 37/68/48 53/57/48 52/56/48
f 60/73/49 64/74/49 65/75/49
f 61/76/50 65/75/50 58/77/50
f 65/75/51 64/74/51 57/78/51
f 62/79/52 65/75/52 59/80/52
f 58/77/53 65/75/53 62/79/53
f 65/75/54 61/76/54 60/73/54
f 57/78/55 63/81/55 65/75/55
f 59/80/56 65/75/56 63/82/56
f 75/83/57 74/84/57 66/14/57 67/13/57
f 77/85/58 76/86/58 68/18/58 69/17/58
f 79/87/59 78/88/59 70/22/59 71/21/59
f 81/89/60 80/90/60 72/26/60 73/25/60
f 76/86/61 75/83/61 67/13/61 68/18/61
f 80/90/62 79/91/62 71/28/62 72/26/62
f 74/84/63 81/89/63 73/25/63 66/14/63
f 78/88/64 77/85/64 69/17/64 70/22/64
f 2/92/65 7/93/65 74/84/65 75/83/65
f 4/94/65 5/95/65 76/86/65 77/85/65
f 3/96/65 8/97/65 78/88/65 79/87/65
f 1/98/65 6/99/65 80/90/65 81/89/65
f 5/95/65 2/92/65 75/83/65 76/86/65
f 6/99/65 3/100/65 79/91/65 80/90/65
f 7/93/65 1/98/65 81/89/65 74/84/65
f 8/97/65 4/94/65 77/85/65 78/88/65
