# Blender v2.93.5 OBJ File: 'yaarg.blend'
# www.blender.org
mtllib yaarg.mtl
o Cube
v 0.977177 0.987111 1.001224
v 0.977177 -0.436165 1.001224
v -1.022823 0.987111 1.001224
v -1.000000 -0.423277 1.000000
v -0.648470 -6.380710 0.260209
v -0.648470 -6.380710 0.968443
v 0.610259 -6.380710 0.968443
v 0.610259 -6.380710 0.260209
v 1.747472 2.347242 1.373736
v -1.747472 2.347242 1.373736
v 1.747472 2.347242 -0.000698
v 1.000000 3.767432 1.000000
v -1.000000 3.767432 1.000000
v -1.000000 -2.725669 1.000000
v 1.000000 -2.725669 1.000000
v 1.373736 1.673621 1.186868
v 1.787916 0.821223 0.298251
v 1.787916 0.821223 0.000564
v 1.506613 0.661006 0.186469
v 1.506613 0.661006 -0.017610
v -0.110815 0.142471 4.925677
v -0.110815 0.287812 4.925677
v 0.111978 0.287812 4.925677
v 0.111978 0.142471 4.925677
v -0.443426 -0.099552 4.521575
v -0.466249 0.519091 4.522799
v 0.421184 0.519091 4.522799
v 0.421184 -0.112441 4.522799
v 0.500581 -0.193972 4.685376
v -0.499419 -0.193972 4.685376
v -0.499419 0.624255 4.685376
v 0.500581 0.624255 4.685376
v -0.110815 0.142471 5.221072
v -0.110815 0.287812 5.221072
v 0.111978 0.287812 5.221072
v 0.111978 0.142471 5.221072
v -0.210101 0.154954 5.783521
v -0.332542 0.154954 5.783521
v -0.332542 0.274773 5.783521
v -0.210101 0.274773 5.783521
v -0.050279 0.159019 5.936539
v -0.180265 0.154954 5.931890
v -0.180265 0.274773 5.931890
v -0.050279 0.278839 5.936539
v 0.114334 0.166114 5.964956
v 0.025137 0.154954 6.009655
v 0.025137 0.274773 6.009655
v 0.114334 0.255883 5.964956
v 0.320686 0.180944 5.901267
v 0.320686 0.237098 5.901267
v 0.196204 0.258193 5.974375
v 0.196204 0.188892 5.974375
v -0.384463 0.142471 5.487203
v -0.384463 0.287812 5.487203
v -0.211208 0.287812 5.487203
v -0.211208 0.142471 5.487203
v 0.351905 0.195906 5.794096
v 0.243112 0.178677 5.912504
v 0.243112 0.247978 5.909808
v 0.290780 0.181048 5.876839
v 0.290780 0.237201 5.876839
v 0.977177 0.987111 -1.001224
v 0.977177 -0.436165 -1.001224
v -1.022823 0.987111 -1.001224
v -1.000000 -0.423277 -1.000000
v -1.000000 -0.423277 0.000000
v 1.000000 1.000000 0.000000
v -1.000000 1.000000 0.000000
v 1.000000 -0.423277 0.000000
v -0.648470 -6.380710 -0.260209
v -0.648470 -6.380710 -0.968443
v 0.610259 -6.380710 -0.968443
v 0.610259 -6.380710 -0.260209
v 1.747472 2.347242 -1.373736
v -1.747472 2.347242 -1.373736
v 1.747472 2.347242 0.000698
v -1.747472 2.347242 0.000000
v 1.000000 3.767432 -1.000000
v -1.000000 3.767432 -1.000000
v 1.000000 3.767432 0.000000
v -1.000000 3.767432 0.000000
v -1.000000 -2.725669 0.000000
v -1.000000 -2.725669 -1.000000
v 1.000000 -2.725669 0.000000
v 1.000000 -2.725669 -1.000000
v 1.373736 1.673621 0.000000
v 1.373736 1.673621 -1.186868
v 1.787916 0.821223 -0.298251
v 1.787916 0.821223 -0.000564
v 1.506613 0.661006 -0.186469
v 1.506613 0.661006 0.017610
v -0.110815 0.142471 -4.925677
v -0.110815 0.287812 -4.925677
v 0.111978 0.287812 -4.925677
v 0.111978 0.142471 -4.925677
v -0.443426 -0.099552 -4.521575
v -0.466249 0.519091 -4.522799
v 0.421184 0.519091 -4.522799
v 0.421184 -0.112441 -4.522799
v 0.500581 -0.193972 -4.685376
v -0.499419 -0.193972 -4.685376
v -0.499419 0.624255 -4.685376
v 0.500581 0.624255 -4.685376
v -0.110815 0.142471 -5.221072
v -0.110815 0.287812 -5.221072
v 0.111978 0.287812 -5.221072
v 0.111978 0.142471 -5.221072
v -0.210101 0.154954 -5.783521
v -0.332542 0.154954 -5.783521
v -0.332542 0.274773 -5.783521
v -0.210101 0.274773 -5.783521
v -0.050279 0.159019 -5.936539
v -0.180265 0.154954 -5.931890
v -0.180265 0.274773 -5.931890
v -0.050279 0.278839 -5.936539
v 0.114334 0.166114 -5.964956
v 0.025137 0.154954 -6.009655
v 0.025137 0.274773 -6.009655
v 0.114334 0.255883 -5.964956
v 0.320686 0.180944 -5.901267
v 0.320686 0.237098 -5.901267
v 0.196204 0.258193 -5.974375
v 0.196204 0.188892 -5.974375
v -0.384463 0.142471 -5.487203
v -0.384463 0.287812 -5.487203
v -0.211208 0.287812 -5.487203
v -0.211208 0.142471 -5.487203
v 0.351905 0.195906 -5.794096
v 0.243112 0.178677 -5.912504
v 0.243112 0.247978 -5.909808
v 0.290780 0.181048 -5.876839
v 0.290780 0.237201 -5.876839
vt 0.887230 0.590655
vt 0.808632 0.601264
vt 0.777245 0.495947
vt 0.836128 0.488676
vt 0.346610 0.514475
vt 0.422790 0.504554
vt 0.452006 0.785118
vt 0.396884 0.794391
vt 0.569753 0.319131
vt 0.569753 0.202264
vt 0.651987 0.203322
vt 0.651987 0.320190
vt 0.320361 0.315310
vt 0.366061 0.196916
vt 0.442074 0.219793
vt 0.408177 0.327384
vt 0.751939 0.798762
vt 0.851251 0.798762
vt 0.851251 0.854641
vt 0.751939 0.854641
vt 0.572125 0.499871
vt 0.552569 0.783630
vt 0.649829 0.505328
vt 0.607729 0.791268
vt 0.197560 0.552347
vt 0.301222 0.820501
vt 0.759102 0.296314
vt 0.769406 0.249306
vt 0.810895 0.267491
vt 0.809377 0.294651
vt 0.710304 0.483168
vt 0.654998 0.315101
vt 0.652317 0.197982
vt 0.802963 0.000165
vt 0.903174 0.014509
vt 0.999835 0.046170
vt 0.933680 0.389265
vt 0.978714 0.264697
vt 0.999835 0.469912
vt 0.158283 0.378618
vt 0.652317 0.822683
vt 0.652317 0.799196
vt 0.727089 0.729084
vt 0.727089 0.822755
vt 0.826173 0.626951
vt 0.767075 0.689552
vt 0.817706 0.729607
vt 0.801075 0.617404
vt 0.751939 0.610103
vt 0.799791 0.601594
vt 0.826173 0.602317
vt 0.652317 0.632870
vt 0.676085 0.649457
vt 0.680287 0.704606
vt 0.670118 0.721872
vt 0.751609 0.728754
vt 0.733365 0.701357
vt 0.724740 0.642752
vt 0.751609 0.601594
vt 0.057155 0.414645
vt 0.000165 0.149482
vt 0.045037 0.133497
vt 0.126020 0.063777
vt 0.149313 0.000165
vt 0.418555 0.053555
vt 0.099281 0.097282
vt 0.698518 0.666761
vt 0.698367 0.681056
vt 0.708277 0.681866
vt 0.708468 0.667133
vt 0.877710 0.754539
vt 0.877335 0.766759
vt 0.848852 0.768632
vt 0.847053 0.751726
vt 0.879754 0.783753
vt 0.857034 0.786895
vt 0.881029 0.797063
vt 0.855776 0.798432
vt 0.881029 0.734337
vt 0.854243 0.729937
vt 0.815685 0.759651
vt 0.815782 0.766593
vt 0.801520 0.767785
vt 0.801307 0.760880
vt 0.796516 0.754491
vt 0.789400 0.761383
vt 0.781615 0.758991
vt 0.817694 0.748256
vt 0.820391 0.777793
vt 0.797652 0.774700
vt 0.817773 0.789563
vt 0.795903 0.782880
vt 0.782123 0.771911
vt 0.780555 0.779896
vt 0.770151 0.776144
vt 0.771284 0.770316
vt 0.789638 0.768831
vt 0.761912 0.769642
vt 0.760871 0.774186
vt 0.757034 0.772633
vt 0.758129 0.769168
vt 0.777028 0.768878
vt 0.776781 0.762462
vt 0.770987 0.760907
vt 0.766507 0.763277
vt 0.766380 0.767816
vt 0.758308 0.767285
vt 0.758416 0.764515
vt 0.761924 0.761585
vt 0.757882 0.762428
vt 0.751939 0.766888
vt 0.887230 0.590655
vt 0.836128 0.488676
vt 0.808632 0.601264
vt 0.346610 0.514475
vt 0.396884 0.794391
vt 0.452006 0.785118
vt 0.651987 0.320190
vt 0.651987 0.203322
vt 0.320361 0.315310
vt 0.366061 0.196916
vt 0.751939 0.798762
vt 0.751939 0.854641
vt 0.851251 0.854641
vt 0.851251 0.798762
vt 0.552569 0.783630
vt 0.607729 0.791268
vt 0.649829 0.505328
vt 0.197560 0.552347
vt 0.301222 0.820501
vt 0.810895 0.267491
vt 0.769406 0.249306
vt 0.652317 0.197982
vt 0.999835 0.046170
vt 0.903174 0.014509
vt 0.802963 0.000165
vt 0.978714 0.264697
vt 0.999835 0.469912
vt 0.158283 0.378618
vt 0.652317 0.822683
vt 0.727089 0.729084
vt 0.652317 0.799196
vt 0.826173 0.626951
vt 0.817706 0.729607
vt 0.767075 0.689552
vt 0.801075 0.617404
vt 0.799791 0.601594
vt 0.826173 0.602317
vt 0.652317 0.632870
vt 0.670118 0.721872
vt 0.680287 0.704606
vt 0.676085 0.649457
vt 0.751609 0.728754
vt 0.733365 0.701357
vt 0.751609 0.601594
vt 0.724740 0.642752
vt 0.045037 0.133497
vt 0.000165 0.149482
vt 0.057155 0.414645
vt 0.418555 0.053555
vt 0.149313 0.000165
vt 0.126020 0.063777
vt 0.099281 0.097282
vt 0.698518 0.666761
vt 0.698367 0.681056
vt 0.708277 0.681866
vt 0.708468 0.667133
vt 0.877710 0.754539
vt 0.847053 0.751726
vt 0.848852 0.768632
vt 0.877335 0.766759
vt 0.857034 0.786895
vt 0.879754 0.783753
vt 0.855776 0.798432
vt 0.881029 0.797063
vt 0.881029 0.734337
vt 0.854243 0.729937
vt 0.815685 0.759651
vt 0.801307 0.760880
vt 0.801520 0.767785
vt 0.815782 0.766593
vt 0.796516 0.754491
vt 0.781615 0.758991
vt 0.789400 0.761383
vt 0.817694 0.748256
vt 0.797652 0.774700
vt 0.820391 0.777793
vt 0.795903 0.782880
vt 0.817773 0.789563
vt 0.782123 0.771911
vt 0.771284 0.770316
vt 0.770151 0.776144
vt 0.780555 0.779896
vt 0.789638 0.768831
vt 0.761912 0.769642
vt 0.758129 0.769168
vt 0.757034 0.772633
vt 0.760871 0.774186
vt 0.776781 0.762462
vt 0.777028 0.768878
vt 0.770987 0.760907
vt 0.766507 0.763277
vt 0.758416 0.764515
vt 0.758308 0.767285
vt 0.766380 0.767816
vt 0.761924 0.761585
vt 0.757882 0.762428
vt 0.751939 0.766888
vn 0.8744 -0.4851 0.0000
vn -0.9954 -0.0957 0.0000
vn 0.9997 0.0000 0.0228
vn -0.9999 -0.0080 -0.0115
vn 0.0000 -1.0000 0.0000
vn 0.0000 -0.0710 -0.9975
vn 0.9944 -0.1060 0.0000
vn 0.0000 -0.0086 1.0000
vn -0.8849 0.4657 0.0000
vn -0.0001 -0.0003 -1.0000
vn 0.0004 -0.2644 0.9644
vn -0.8791 -0.4765 -0.0110
vn 0.0000 1.0000 0.0000
vn 0.0000 0.2545 0.9671
vn -0.0001 0.0002 -1.0000
vn 0.8849 0.4657 0.0000
vn -0.0003 -0.0003 1.0000
vn 0.9999 0.0050 0.0114
vn -1.0000 0.0000 0.0000
vn -0.8994 -0.4370 0.0000
vn -0.5130 0.4874 -0.7066
vn 0.2681 -0.8216 0.5030
vn 0.5511 0.8342 0.0194
vn -0.4949 0.8689 0.0000
vn -0.0058 -0.8804 -0.4742
vn -0.9647 -0.0151 -0.2630
vn 0.0000 0.8396 -0.5431
vn 0.8986 0.0000 -0.4388
vn 0.9878 0.0000 0.1560
vn 0.0000 0.9913 0.1317
vn -0.9876 -0.0224 0.1556
vn -0.0091 -0.9958 0.0915
vn 0.0000 -0.5812 0.8138
vn -0.5259 0.0000 0.8505
vn 0.0000 0.5812 0.8138
vn 0.5259 0.0000 0.8505
vn 1.0000 0.0000 0.0000
vn -0.9850 0.0000 0.1726
vn -0.0162 0.9999 0.0033
vn 0.0000 0.9990 0.0440
vn 0.0000 -0.9991 0.0421
vn 1.0000 0.0000 -0.0037
vn 0.1701 0.0000 -0.9854
vn 0.0162 -0.9999 -0.0033
vn 0.6916 0.0000 -0.7223
vn -0.6979 0.0000 0.7162
vn -0.5852 -0.0174 -0.8107
vn -0.3541 0.0000 0.9352
vn 0.0653 0.9978 -0.0119
vn 0.0496 -0.9931 -0.1063
vn -0.3852 -0.0156 -0.9227
vn 0.5064 0.0000 0.8623
vn 0.2020 0.0000 0.9794
vn 0.6357 0.0000 0.7720
vn -0.6972 0.0000 -0.7169
vn 0.0021 0.9669 -0.2550
vn 0.1289 0.9878 -0.0876
vn 0.2270 -0.9323 0.2816
vn 0.0471 -0.9910 0.1254
vn 0.2379 0.9278 -0.2873
vn 0.9601 0.0000 0.2797
vn 0.0884 -0.9897 -0.1124
vn -0.8043 0.0000 -0.5942
vn 0.9997 0.0000 -0.0228
vn -0.9999 -0.0080 0.0115
vn 0.0000 -0.0710 0.9975
vn 0.0000 -0.0086 -1.0000
vn -0.0001 -0.0003 1.0000
vn 0.0004 -0.2644 -0.9644
vn -0.8791 -0.4765 0.0110
vn 0.0000 0.2545 -0.9671
vn -0.0001 0.0002 1.0000
vn -0.0003 -0.0003 -1.0000
vn 0.9999 0.0050 -0.0114
vn 0.0000 0.0000 1.0000
vn -0.5130 0.4874 0.7066
vn 0.2681 -0.8216 -0.5030
vn 0.5511 0.8342 -0.0194
vn -0.0058 -0.8804 0.4742
vn -0.9647 -0.0151 0.2630
vn 0.0000 0.8396 0.5431
vn 0.8986 0.0000 0.4388
vn 0.9878 0.0000 -0.1560
vn 0.0000 0.9913 -0.1317
vn -0.9876 -0.0224 -0.1556
vn -0.0091 -0.9958 -0.0915
vn 0.0000 -0.5812 -0.8138
vn -0.5259 0.0000 -0.8505
vn 0.0000 0.5812 -0.8138
vn 0.5259 0.0000 -0.8505
vn -0.9850 0.0000 -0.1726
vn -0.0162 0.9999 -0.0033
vn 0.0000 0.9990 -0.0440
vn 0.0000 -0.9991 -0.0421
vn 1.0000 0.0000 0.0037
vn 0.1701 0.0000 0.9854
vn 0.0162 -0.9999 0.0033
vn 0.6916 0.0000 0.7223
vn -0.6979 0.0000 -0.7162
vn -0.5852 -0.0174 0.8107
vn -0.3541 0.0000 -0.9352
vn 0.0653 0.9978 0.0119
vn 0.0496 -0.9931 0.1063
vn -0.3852 -0.0156 0.9227
vn 0.5064 0.0000 -0.8623
vn 0.2020 0.0000 -0.9794
vn 0.6357 0.0000 -0.7720
vn -0.6972 0.0000 0.7169
vn 0.0021 0.9669 0.2550
vn 0.1289 0.9878 0.0876
vn 0.2270 -0.9323 -0.2816
vn 0.0471 -0.9910 -0.1254
vn 0.2379 0.9278 0.2873
vn 0.9601 0.0000 -0.2797
vn 0.0884 -0.9897 0.1124
vn -0.8043 0.0000 0.5942
usemtl Material
s off
f 9/1/1 16/2/1 86/3/1 11/4/1
f 14/5/2 82/6/2 5/7/2 6/8/2
f 69/9/3 67/10/3 1/11/3 2/12/3
f 4/13/4 3/14/4 68/15/4 66/16/4
f 5/17/5 8/18/5 7/19/5 6/20/5
f 82/6/6 84/21/6 8/22/6 5/7/6
f 84/21/7 15/23/7 7/24/7 8/22/7
f 15/25/8 14/5/8 6/8/8 7/26/8
f 77/27/9 10/28/9 13/29/9 81/30/9
f 67/31/10 68/32/10 77/27/10 11/4/10 86/3/10
f 3/33/11 1/34/11 16/35/11 9/36/11 10/28/11
f 68/32/12 3/33/12 10/28/12 77/27/12
f 80/37/13 81/30/13 13/29/13 12/38/13
f 10/28/14 9/36/14 12/38/14 13/29/14
f 11/4/15 77/27/15 81/30/15 80/37/15
f 9/1/16 11/4/16 80/37/16 12/39/16
f 2/40/17 4/13/17 14/5/17 15/25/17
f 69/9/18 2/12/18 15/23/18 84/21/18
f 4/13/19 66/16/19 82/6/19 14/5/19
f 18/41/20 17/42/20 16/43/20 86/44/20
f 17/45/21 1/46/21 16/47/21
f 19/48/22 17/45/22 1/46/22
f 67/49/23 1/46/23 19/48/23 20/50/23
f 18/51/24 20/50/24 19/48/24 17/45/24
f 28/52/25 29/53/25 30/54/25 25/55/25
f 26/56/26 25/55/26 30/54/26 31/57/26
f 26/56/27 31/57/27 32/58/27 27/59/27
f 28/52/28 27/59/28 32/58/28 29/53/28
f 2/40/29 1/60/29 27/61/29 28/62/29
f 3/14/30 26/63/30 27/64/30 1/65/30
f 3/14/31 4/13/31 25/66/31 26/63/31
f 2/40/32 28/62/32 25/66/32 4/13/32
f 24/67/33 21/68/33 30/54/33 29/53/33
f 21/68/34 22/69/34 31/57/34 30/54/34
f 22/69/35 23/70/35 32/58/35 31/57/35
f 23/70/36 24/67/36 29/53/36 32/58/36
f 22/71/19 21/72/19 33/73/19 34/74/19
f 21/72/5 24/75/5 36/76/5 33/73/5
f 24/75/37 23/77/37 35/78/37 36/76/37
f 23/79/13 22/71/13 34/74/13 35/80/13
f 54/81/38 53/82/38 38/83/38 39/84/38
f 40/85/39 39/84/39 43/86/39 44/87/39
f 55/88/40 54/81/40 39/84/40 40/85/40
f 53/82/41 56/89/41 37/90/41 38/83/41
f 56/89/42 55/91/42 40/92/42 37/90/42
f 41/93/43 44/94/43 48/95/43 45/96/43
f 38/83/44 37/90/44 41/93/44 42/97/44
f 37/90/45 40/92/45 44/94/45 41/93/45
f 39/84/46 38/83/46 42/97/46 43/86/46
f 58/98/47 59/99/47 61/100/47 60/101/47
f 43/86/48 42/97/48 46/102/48 47/103/48
f 44/87/49 43/86/49 47/103/49 48/104/49
f 42/97/50 41/93/50 45/96/50 46/102/50
f 45/96/51 48/95/51 59/99/51 58/98/51
f 51/105/52 52/106/52 49/107/52 50/108/52
f 47/103/53 46/102/53 52/106/53 51/105/53
f 36/76/54 35/78/54 55/91/54 56/89/54
f 33/73/5 36/76/5 56/89/5 53/82/5
f 35/80/13 34/74/13 54/81/13 55/88/13
f 34/74/55 33/73/55 53/82/55 54/81/55
f 48/104/56 47/103/56 51/105/56 59/109/56
f 50/108/57 61/110/57 59/109/57 51/105/57
f 45/96/58 58/98/58 52/106/58 46/102/58
f 60/101/59 49/107/59 52/106/59 58/98/59
f 50/108/60 57/111/60 61/110/60
f 57/111/61 50/108/61 49/107/61
f 60/101/62 57/111/62 49/107/62
f 60/101/63 61/100/63 57/111/63
f 74/112/1 76/113/1 86/3/1 87/114/1
f 83/115/2 71/116/2 70/117/2 82/6/2
f 69/9/64 63/118/64 62/119/64 67/10/64
f 65/120/65 66/16/65 68/15/65 64/121/65
f 70/122/5 71/123/5 72/124/5 73/125/5
f 82/6/66 70/117/66 73/126/66 84/21/66
f 84/21/7 73/126/7 72/127/7 85/128/7
f 85/129/67 72/130/67 71/116/67 83/115/67
f 77/27/9 81/30/9 79/131/9 75/132/9
f 67/31/68 86/3/68 76/113/68 77/27/68 68/32/68
f 64/133/69 75/132/69 74/134/69 87/135/69 62/136/69
f 68/32/70 77/27/70 75/132/70 64/133/70
f 80/37/13 78/137/13 79/131/13 81/30/13
f 75/132/71 79/131/71 78/137/71 74/134/71
f 76/113/72 80/37/72 81/30/72 77/27/72
f 74/112/16 78/138/16 80/37/16 76/113/16
f 63/139/73 85/129/73 83/115/73 65/120/73
f 69/9/74 84/21/74 85/128/74 63/118/74
f 66/16/75 82/6/75 84/21/75 69/9/75
f 65/120/19 83/115/19 82/6/19 66/16/19
f 89/140/20 86/44/20 87/141/20 88/142/20
f 88/143/76 87/144/76 62/145/76
f 90/146/77 62/145/77 88/143/77
f 67/49/78 91/147/78 90/146/78 62/145/78
f 89/148/24 88/143/24 90/146/24 91/147/24
f 99/149/79 96/150/79 101/151/79 100/152/79
f 97/153/80 102/154/80 101/151/80 96/150/80
f 97/153/81 98/155/81 103/156/81 102/154/81
f 99/149/82 100/152/82 103/156/82 98/155/82
f 63/139/83 99/157/83 98/158/83 62/159/83
f 64/121/84 62/160/84 98/161/84 97/162/84
f 64/121/85 97/162/85 96/163/85 65/120/85
f 63/139/86 65/120/86 96/163/86 99/157/86
f 95/164/87 100/152/87 101/151/87 92/165/87
f 92/165/88 101/151/88 102/154/88 93/166/88
f 93/166/89 102/154/89 103/156/89 94/167/89
f 94/167/90 103/156/90 100/152/90 95/164/90
f 93/168/19 105/169/19 104/170/19 92/171/19
f 92/171/5 104/170/5 107/172/5 95/173/5
f 95/173/37 107/172/37 106/174/37 94/175/37
f 94/176/13 106/177/13 105/169/13 93/168/13
f 125/178/91 110/179/91 109/180/91 124/181/91
f 111/182/92 115/183/92 114/184/92 110/179/92
f 126/185/93 111/182/93 110/179/93 125/178/93
f 124/181/94 109/180/94 108/186/94 127/187/94
f 127/187/95 108/186/95 111/188/95 126/189/95
f 112/190/96 116/191/96 119/192/96 115/193/96
f 109/180/97 113/194/97 112/190/97 108/186/97
f 108/186/98 112/190/98 115/193/98 111/188/98
f 110/179/99 114/184/99 113/194/99 109/180/99
f 129/195/100 131/196/100 132/197/100 130/198/100
f 114/184/101 118/199/101 117/200/101 113/194/101
f 115/183/102 119/201/102 118/199/102 114/184/102
f 113/194/103 117/200/103 116/191/103 112/190/103
f 116/191/104 129/195/104 130/198/104 119/192/104
f 122/202/105 121/203/105 120/204/105 123/205/105
f 118/199/106 122/202/106 123/205/106 117/200/106
f 107/172/107 127/187/107 126/189/107 106/174/107
f 104/170/5 124/181/5 127/187/5 107/172/5
f 106/177/13 126/185/13 125/178/13 105/169/13
f 105/169/108 125/178/108 124/181/108 104/170/108
f 119/201/109 130/206/109 122/202/109 118/199/109
f 121/203/110 122/202/110 130/206/110 132/207/110
f 116/191/111 117/200/111 123/205/111 129/195/111
f 131/196/112 129/195/112 123/205/112 120/204/112
f 121/203/113 132/207/113 128/208/113
f 128/208/114 120/204/114 121/203/114
f 131/196/115 120/204/115 128/208/115
f 131/196/116 128/208/116 132/197/116
